<svg id="visual" viewBox="0 0 900 600" width="900" height="600" xmlns="http://www.w3.org/2000/svg" xmlns:xlink="http://www.w3.org/1999/xlink" version="1.1"><rect x="0" y="0" width="900" height="600" fill="#001220"></rect><defs><linearGradient id="grad1_0" x1="33.3%" y1="0%" x2="100%" y2="100%"><stop offset="20%" stop-color="#4171b3" stop-opacity="1"></stop><stop offset="80%" stop-color="#4171b3" stop-opacity="1"></stop></linearGradient></defs><defs><linearGradient id="grad1_1" x1="33.3%" y1="0%" x2="100%" y2="100%"><stop offset="20%" stop-color="#4171b3" stop-opacity="1"></stop><stop offset="80%" stop-color="#184065" stop-opacity="1"></stop></linearGradient></defs><defs><linearGradient id="grad1_2" x1="33.3%" y1="0%" x2="100%" y2="100%"><stop offset="20%" stop-color="#001220" stop-opacity="1"></stop><stop offset="80%" stop-color="#184065" stop-opacity="1"></stop></linearGradient></defs><defs><linearGradient id="grad2_0" x1="0%" y1="0%" x2="66.7%" y2="100%"><stop offset="20%" stop-color="#4171b3" stop-opacity="1"></stop><stop offset="80%" stop-color="#4171b3" stop-opacity="1"></stop></linearGradient></defs><defs><linearGradient id="grad2_1" x1="0%" y1="0%" x2="66.7%" y2="100%"><stop offset="20%" stop-color="#184065" stop-opacity="1"></stop><stop offset="80%" stop-color="#4171b3" stop-opacity="1"></stop></linearGradient></defs><defs><linearGradient id="grad2_2" x1="0%" y1="0%" x2="66.7%" y2="100%"><stop offset="20%" stop-color="#184065" stop-opacity="1"></stop><stop offset="80%" stop-color="#001220" stop-opacity="1"></stop></linearGradient></defs><g transform="translate(900, 0)"><path d="M0 324.5C-44.7 322 -89.4 319.5 -124.2 299.8C-158.9 280.1 -183.7 243.3 -212.1 212.1C-240.6 180.9 -272.6 155.3 -291.9 120.9C-311.3 86.5 -317.9 43.3 -324.5 0L0 0Z" fill="#0a2841"></path><path d="M0 216.3C-29.8 214.7 -59.6 213 -82.8 199.9C-106 186.8 -122.5 162.2 -141.4 141.4C-160.4 120.6 -181.7 103.6 -194.6 80.6C-207.5 57.7 -211.9 28.8 -216.3 0L0 0Z" fill="#2a588b"></path><path d="M0 108.2C-14.9 107.3 -29.8 106.5 -41.4 99.9C-53 93.4 -61.2 81.1 -70.7 70.7C-80.2 60.3 -90.9 51.8 -97.3 40.3C-103.8 28.8 -106 14.4 -108.2 0L0 0Z" fill="#4171b3"></path></g><g transform="translate(0, 600)"><path d="M0 -324.5C43.2 -316.4 86.5 -308.4 119 -287.3C151.6 -266.3 173.4 -232.3 205.1 -205.1C236.7 -177.8 278.3 -157.2 299.8 -124.2C321.3 -91.1 322.9 -45.6 324.5 0L0 0Z" fill="#0a2841"></path><path d="M0 -216.3C28.8 -211 57.7 -205.6 79.3 -191.6C101 -177.5 115.6 -154.9 136.7 -136.7C157.8 -118.5 185.5 -104.8 199.9 -82.8C214.2 -60.7 215.3 -30.4 216.3 0L0 0Z" fill="#2a588b"></path><path d="M0 -108.2C14.4 -105.5 28.8 -102.8 39.7 -95.8C50.5 -88.8 57.8 -77.4 68.4 -68.4C78.9 -59.3 92.8 -52.4 99.9 -41.4C107.1 -30.4 107.6 -15.2 108.2 0L0 0Z" fill="#4171b3"></path></g></svg>