<svg id="visual" viewBox="0 0 960 540" width="960" height="540" xmlns="http://www.w3.org/2000/svg" xmlns:xlink="http://www.w3.org/1999/xlink" version="1.1"><path d="M0 131L20 131.8C40 132.7 80 134.3 120 128C160 121.7 200 107.3 240 107.3C280 107.3 320 121.7 360 132.5C400 143.3 440 150.7 480 146.2C520 141.7 560 125.3 600 124.3C640 123.3 680 137.7 720 144.8C760 152 800 152 840 145.7C880 139.3 920 126.7 940 120.3L960 114L960 0L940 0C920 0 880 0 840 0C800 0 760 0 720 0C680 0 640 0 600 0C560 0 520 0 480 0C440 0 400 0 360 0C320 0 280 0 240 0C200 0 160 0 120 0C80 0 40 0 20 0L0 0Z" fill="#4b77b4"></path><path d="M0 168L20 169C40 170 80 172 120 165.8C160 159.7 200 145.3 240 143.5C280 141.7 320 152.3 360 162.2C400 172 440 181 480 177.3C520 173.7 560 157.3 600 159.2C640 161 680 181 720 189.2C760 197.3 800 193.7 840 184.7C880 175.7 920 161.3 940 154.2L960 147L960 112L940 118.3C920 124.7 880 137.3 840 143.7C800 150 760 150 720 142.8C680 135.7 640 121.3 600 122.3C560 123.3 520 139.7 480 144.2C440 148.7 400 141.3 360 130.5C320 119.7 280 105.3 240 105.3C200 105.3 160 119.7 120 126C80 132.3 40 130.7 20 129.8L0 129Z" fill="#4169a0"></path><path d="M0 244L20 243.2C40 242.3 80 240.7 120 234.3C160 228 200 217 240 218.7C280 220.3 320 234.7 360 242.8C400 251 440 253 480 243.2C520 233.3 560 211.7 600 215.2C640 218.7 680 247.3 720 260C760 272.7 800 269.3 840 259.5C880 249.7 920 233.3 940 225.2L960 217L960 145L940 152.2C920 159.3 880 173.7 840 182.7C800 191.7 760 195.3 720 187.2C680 179 640 159 600 157.2C560 155.3 520 171.7 480 175.3C440 179 400 170 360 160.2C320 150.3 280 139.7 240 141.5C200 143.3 160 157.7 120 163.8C80 170 40 168 20 167L0 166Z" fill="#375b8d"></path><path d="M0 298L20 296.2C40 294.3 80 290.7 120 285.3C160 280 200 273 240 274.8C280 276.7 320 287.3 360 292.7C400 298 440 298 480 287.2C520 276.3 560 254.7 600 260C640 265.3 680 297.7 720 308.5C760 319.3 800 308.7 840 297C880 285.3 920 272.7 940 266.3L960 260L960 215L940 223.2C920 231.3 880 247.7 840 257.5C800 267.3 760 270.7 720 258C680 245.3 640 216.7 600 213.2C560 209.7 520 231.3 480 241.2C440 251 400 249 360 240.8C320 232.7 280 218.3 240 216.7C200 215 160 226 120 232.3C80 238.7 40 240.3 20 241.2L0 242Z" fill="#2d4d7a"></path><path d="M0 411L20 413.8C40 416.7 80 422.3 120 425.2C160 428 200 428 240 423.5C280 419 320 410 360 410C400 410 440 419 480 423.5C520 428 560 428 600 428C640 428 680 428 720 423.5C760 419 800 410 840 410C880 410 920 419 940 423.5L960 428L960 258L940 264.3C920 270.7 880 283.3 840 295C800 306.7 760 317.3 720 306.5C680 295.7 640 263.3 600 258C560 252.7 520 274.3 480 285.2C440 296 400 296 360 290.7C320 285.3 280 274.7 240 272.8C200 271 160 278 120 283.3C80 288.7 40 292.3 20 294.2L0 296Z" fill="#234067"></path><path d="M0 482L20 485.5C40 489 80 496 120 499.5C160 503 200 503 240 503C280 503 320 503 360 502.2C400 501.3 440 499.7 480 497C520 494.3 560 490.7 600 490.7C640 490.7 680 494.3 720 494.3C760 494.3 800 490.7 840 488.8C880 487 920 487 940 487L960 487L960 426L940 421.5C920 417 880 408 840 408C800 408 760 417 720 421.5C680 426 640 426 600 426C560 426 520 426 480 421.5C440 417 400 408 360 408C320 408 280 417 240 421.5C200 426 160 426 120 423.2C80 420.3 40 414.7 20 411.8L0 409Z" fill="#1a3255"></path><path d="M0 541L20 541C40 541 80 541 120 541C160 541 200 541 240 541C280 541 320 541 360 541C400 541 440 541 480 541C520 541 560 541 600 541C640 541 680 541 720 541C760 541 800 541 840 541C880 541 920 541 940 541L960 541L960 485L940 485C920 485 880 485 840 486.8C800 488.7 760 492.3 720 492.3C680 492.3 640 488.7 600 488.7C560 488.7 520 492.3 480 495C440 497.7 400 499.3 360 500.2C320 501 280 501 240 501C200 501 160 501 120 497.5C80 494 40 487 20 483.5L0 480Z" fill="#102644"></path></svg>