<svg id="visual" viewBox="0 0 960 540" width="960" height="540" xmlns="http://www.w3.org/2000/svg" xmlns:xlink="http://www.w3.org/1999/xlink" version="1.1"><rect x="0" y="0" width="960" height="540" fill="#001220"></rect><path d="M0 180L22.8 176.8C45.7 173.7 91.3 167.3 137 161.2C182.7 155 228.3 149 274 152.7C319.7 156.3 365.3 169.7 411.2 168.8C457 168 503 153 548.8 147.7C594.7 142.3 640.3 146.7 686 156.7C731.7 166.7 777.3 182.3 823 181.8C868.7 181.3 914.3 164.7 937.2 156.3L960 148L960 0L937.2 0C914.3 0 868.7 0 823 0C777.3 0 731.7 0 686 0C640.3 0 594.7 0 548.8 0C503 0 457 0 411.2 0C365.3 0 319.7 0 274 0C228.3 0 182.7 0 137 0C91.3 0 45.7 0 22.8 0L0 0Z" fill="#252d56"></path><path d="M0 173L22.8 166.8C45.7 160.7 91.3 148.3 137 144.3C182.7 140.3 228.3 144.7 274 140.5C319.7 136.3 365.3 123.7 411.2 118.5C457 113.3 503 115.7 548.8 115C594.7 114.3 640.3 110.7 686 120C731.7 129.3 777.3 151.7 823 159C868.7 166.3 914.3 158.7 937.2 154.8L960 151L960 0L937.2 0C914.3 0 868.7 0 823 0C777.3 0 731.7 0 686 0C640.3 0 594.7 0 548.8 0C503 0 457 0 411.2 0C365.3 0 319.7 0 274 0C228.3 0 182.7 0 137 0C91.3 0 45.7 0 22.8 0L0 0Z" fill="#2a3b69"></path><path d="M0 118L22.8 118.2C45.7 118.3 91.3 118.7 137 113.8C182.7 109 228.3 99 274 102.3C319.7 105.7 365.3 122.3 411.2 127.7C457 133 503 127 548.8 122.5C594.7 118 640.3 115 686 115C731.7 115 777.3 118 823 112.7C868.7 107.3 914.3 93.7 937.2 86.8L960 80L960 0L937.2 0C914.3 0 868.7 0 823 0C777.3 0 731.7 0 686 0C640.3 0 594.7 0 548.8 0C503 0 457 0 411.2 0C365.3 0 319.7 0 274 0C228.3 0 182.7 0 137 0C91.3 0 45.7 0 22.8 0L0 0Z" fill="#2e4a7d"></path><path d="M0 61L22.8 64.5C45.7 68 91.3 75 137 79.2C182.7 83.3 228.3 84.7 274 87.5C319.7 90.3 365.3 94.7 411.2 96.7C457 98.7 503 98.3 548.8 95C594.7 91.7 640.3 85.3 686 83.7C731.7 82 777.3 85 823 87.2C868.7 89.3 914.3 90.7 937.2 91.3L960 92L960 0L937.2 0C914.3 0 868.7 0 823 0C777.3 0 731.7 0 686 0C640.3 0 594.7 0 548.8 0C503 0 457 0 411.2 0C365.3 0 319.7 0 274 0C228.3 0 182.7 0 137 0C91.3 0 45.7 0 22.8 0L0 0Z" fill="#305991"></path><path d="M0 30L22.8 31C45.7 32 91.3 34 137 33.8C182.7 33.7 228.3 31.3 274 36.3C319.7 41.3 365.3 53.7 411.2 57.3C457 61 503 56 548.8 49.7C594.7 43.3 640.3 35.7 686 37.7C731.7 39.7 777.3 51.3 823 55C868.7 58.7 914.3 54.3 937.2 52.2L960 50L960 0L937.2 0C914.3 0 868.7 0 823 0C777.3 0 731.7 0 686 0C640.3 0 594.7 0 548.8 0C503 0 457 0 411.2 0C365.3 0 319.7 0 274 0C228.3 0 182.7 0 137 0C91.3 0 45.7 0 22.8 0L0 0Z" fill="#3069a5"></path></svg>