<svg id="visual" viewBox="0 0 960 540" width="960" height="540" xmlns="http://www.w3.org/2000/svg" xmlns:xlink="http://www.w3.org/1999/xlink" version="1.1"><g><g transform="translate(2 319)"><path d="M0 -61.5L39.6 -47.1L60.6 -10.7L53.3 30.8L21.1 57.8L-21.1 57.8L-53.3 30.8L-60.6 -10.7L-39.6 -47.1Z" fill="none" stroke="#609dba" stroke-width="2"></path></g><g transform="translate(577 193)"><path d="M0 -47L30.2 -36L46.3 -8.2L40.7 23.5L16.1 44.2L-16.1 44.2L-40.7 23.5L-46.3 -8.2L-30.2 -36Z" fill="none" stroke="#609dba" stroke-width="2"></path></g><g transform="translate(264 14)"><path d="M0 -43L27.6 -32.9L42.3 -7.5L37.2 21.5L14.7 40.4L-14.7 40.4L-37.2 21.5L-42.3 -7.5L-27.6 -32.9Z" fill="none" stroke="#609dba" stroke-width="2"></path></g><g transform="translate(360 191)"><path d="M0 -42L27 -32.2L41.4 -7.3L36.4 21L14.4 39.5L-14.4 39.5L-36.4 21L-41.4 -7.3L-27 -32.2Z" fill="none" stroke="#609dba" stroke-width="2"></path></g><g transform="translate(150 306)"><path d="M0 -45L28.9 -34.5L44.3 -7.8L39 22.5L15.4 42.3L-15.4 42.3L-39 22.5L-44.3 -7.8L-28.9 -34.5Z" fill="none" stroke="#609dba" stroke-width="2"></path></g><g transform="translate(77 179)"><path d="M0 -40L25.7 -30.6L39.4 -6.9L34.6 20L13.7 37.6L-13.7 37.6L-34.6 20L-39.4 -6.9L-25.7 -30.6Z" fill="none" stroke="#609dba" stroke-width="2"></path></g><g transform="translate(521 422)"><path d="M0 -46L29.6 -35.2L45.3 -8L39.8 23L15.7 43.2L-15.7 43.2L-39.8 23L-45.3 -8L-29.6 -35.2Z" fill="none" stroke="#609dba" stroke-width="2"></path></g><g transform="translate(791 304)"><path d="M0 -42L27 -32.2L41.4 -7.3L36.4 21L14.4 39.5L-14.4 39.5L-36.4 21L-41.4 -7.3L-27 -32.2Z" fill="none" stroke="#609dba" stroke-width="2"></path></g><g transform="translate(755 530)"><path d="M0 -45L28.9 -34.5L44.3 -7.8L39 22.5L15.4 42.3L-15.4 42.3L-39 22.5L-44.3 -7.8L-28.9 -34.5Z" fill="none" stroke="#609dba" stroke-width="2"></path></g></g></svg>