<svg id="visual" viewBox="0 0 960 540" width="960" height="540" xmlns="http://www.w3.org/2000/svg" xmlns:xlink="http://www.w3.org/1999/xlink" version="1.1"><path d="M0 93L20 86.7C40 80.3 80 67.7 120 64C160 60.3 200 65.7 240 71C280 76.3 320 81.7 360 87.2C400 92.7 440 98.3 480 101.2C520 104 560 104 600 98.5C640 93 680 82 720 81C760 80 800 89 840 90.8C880 92.7 920 87.3 940 84.7L960 82L960 0L940 0C920 0 880 0 840 0C800 0 760 0 720 0C680 0 640 0 600 0C560 0 520 0 480 0C440 0 400 0 360 0C320 0 280 0 240 0C200 0 160 0 120 0C80 0 40 0 20 0L0 0Z" fill="#1e395f"></path><path d="M0 120L20 117.3C40 114.7 80 109.3 120 106.7C160 104 200 104 240 106.7C280 109.3 320 114.7 360 119.2C400 123.7 440 127.3 480 132.7C520 138 560 145 600 141.3C640 137.7 680 123.3 720 118.8C760 114.3 800 119.7 840 120.5C880 121.3 920 117.7 940 115.8L960 114L960 80L940 82.7C920 85.3 880 90.7 840 88.8C800 87 760 78 720 79C680 80 640 91 600 96.5C560 102 520 102 480 99.2C440 96.3 400 90.7 360 85.2C320 79.7 280 74.3 240 69C200 63.7 160 58.3 120 62C80 65.7 40 78.3 20 84.7L0 91Z" fill="#486491"></path><path d="M0 152L20 150.2C40 148.3 80 144.7 120 143.8C160 143 200 145 240 149.5C280 154 320 161 360 163.7C400 166.3 440 164.7 480 171C520 177.3 560 191.7 600 191.7C640 191.7 680 177.3 720 173.8C760 170.3 800 177.7 840 175.8C880 174 920 163 940 157.5L960 152L960 112L940 113.8C920 115.7 880 119.3 840 118.5C800 117.7 760 112.3 720 116.8C680 121.3 640 135.7 600 139.3C560 143 520 136 480 130.7C440 125.3 400 121.7 360 117.2C320 112.7 280 107.3 240 104.7C200 102 160 102 120 104.7C80 107.3 40 112.7 20 115.3L0 118Z" fill="#7293c6"></path><path d="M0 260L20 270C40 280 80 300 120 301C160 302 200 284 240 287.5C280 291 320 316 360 324C400 332 440 323 480 316.7C520 310.3 560 306.7 600 308.5C640 310.3 680 317.7 720 323.2C760 328.7 800 332.3 840 327C880 321.7 920 307.3 940 300.2L960 293L960 150L940 155.5C920 161 880 172 840 173.8C800 175.7 760 168.3 720 171.8C680 175.3 640 189.7 600 189.7C560 189.7 520 175.3 480 169C440 162.7 400 164.3 360 161.7C320 159 280 152 240 147.5C200 143 160 141 120 141.8C80 142.7 40 146.3 20 148.2L0 150Z" fill="#84a7dc"></path><path d="M0 401L20 402.7C40 404.3 80 407.7 120 413C160 418.3 200 425.7 240 432C280 438.3 320 443.7 360 441C400 438.3 440 427.7 480 426.8C520 426 560 435 600 435.8C640 436.7 680 429.3 720 426.7C760 424 800 426 840 429.7C880 433.3 920 438.7 940 441.3L960 444L960 291L940 298.2C920 305.3 880 319.7 840 325C800 330.3 760 326.7 720 321.2C680 315.7 640 308.3 600 306.5C560 304.7 520 308.3 480 314.7C440 321 400 330 360 322C320 314 280 289 240 285.5C200 282 160 300 120 299C80 298 40 278 20 268L0 258Z" fill="#7293c6"></path><path d="M0 487L20 485.2C40 483.3 80 479.7 120 477.8C160 476 200 476 240 480.5C280 485 320 494 360 495C400 496 440 489 480 486.3C520 483.7 560 485.3 600 488.8C640 492.3 680 497.7 720 496.8C760 496 800 489 840 486.3C880 483.7 920 485.3 940 486.2L960 487L960 442L940 439.3C920 436.7 880 431.3 840 427.7C800 424 760 422 720 424.7C680 427.3 640 434.7 600 433.8C560 433 520 424 480 424.8C440 425.7 400 436.3 360 439C320 441.7 280 436.3 240 430C200 423.7 160 416.3 120 411C80 405.7 40 402.3 20 400.7L0 399Z" fill="#486491"></path><path d="M0 541L20 541C40 541 80 541 120 541C160 541 200 541 240 541C280 541 320 541 360 541C400 541 440 541 480 541C520 541 560 541 600 541C640 541 680 541 720 541C760 541 800 541 840 541C880 541 920 541 940 541L960 541L960 485L940 484.2C920 483.3 880 481.7 840 484.3C800 487 760 494 720 494.8C680 495.7 640 490.3 600 486.8C560 483.3 520 481.7 480 484.3C440 487 400 494 360 493C320 492 280 483 240 478.5C200 474 160 474 120 475.8C80 477.7 40 481.3 20 483.2L0 485Z" fill="#1e395f"></path></svg>