<svg id="visual" viewBox="0 0 960 540" width="960" height="540" xmlns="http://www.w3.org/2000/svg" xmlns:xlink="http://www.w3.org/1999/xlink" version="1.1"><path d="M0 174L22.8 176.2C45.7 178.3 91.3 182.7 137 186.2C182.7 189.7 228.3 192.3 274 183.7C319.7 175 365.3 155 411.2 150C457 145 503 155 548.8 161.8C594.7 168.7 640.3 172.3 686 181.3C731.7 190.3 777.3 204.7 823 198.2C868.7 191.7 914.3 164.3 937.2 150.7L960 137L960 0L937.2 0C914.3 0 868.7 0 823 0C777.3 0 731.7 0 686 0C640.3 0 594.7 0 548.8 0C503 0 457 0 411.2 0C365.3 0 319.7 0 274 0C228.3 0 182.7 0 137 0C91.3 0 45.7 0 22.8 0L0 0Z" fill="#252d56"></path><path d="M0 164L22.8 164.2C45.7 164.3 91.3 164.7 137 166.2C182.7 167.7 228.3 170.3 274 171.2C319.7 172 365.3 171 411.2 162.3C457 153.7 503 137.3 548.8 128.3C594.7 119.3 640.3 117.7 686 127.3C731.7 137 777.3 158 823 165.7C868.7 173.3 914.3 167.7 937.2 164.8L960 162L960 0L937.2 0C914.3 0 868.7 0 823 0C777.3 0 731.7 0 686 0C640.3 0 594.7 0 548.8 0C503 0 457 0 411.2 0C365.3 0 319.7 0 274 0C228.3 0 182.7 0 137 0C91.3 0 45.7 0 22.8 0L0 0Z" fill="#2a3b69"></path><path d="M0 104L22.8 106.7C45.7 109.3 91.3 114.7 137 114.3C182.7 114 228.3 108 274 103.5C319.7 99 365.3 96 411.2 93.2C457 90.3 503 87.7 548.8 91.5C594.7 95.3 640.3 105.7 686 115.5C731.7 125.3 777.3 134.7 823 139.3C868.7 144 914.3 144 937.2 144L960 144L960 0L937.2 0C914.3 0 868.7 0 823 0C777.3 0 731.7 0 686 0C640.3 0 594.7 0 548.8 0C503 0 457 0 411.2 0C365.3 0 319.7 0 274 0C228.3 0 182.7 0 137 0C91.3 0 45.7 0 22.8 0L0 0Z" fill="#2e4a7d"></path><path d="M0 53L22.8 53.5C45.7 54 91.3 55 137 56C182.7 57 228.3 58 274 59C319.7 60 365.3 61 411.2 63.8C457 66.7 503 71.3 548.8 70.8C594.7 70.3 640.3 64.7 686 61.2C731.7 57.7 777.3 56.3 823 56.2C868.7 56 914.3 57 937.2 57.5L960 58L960 0L937.2 0C914.3 0 868.7 0 823 0C777.3 0 731.7 0 686 0C640.3 0 594.7 0 548.8 0C503 0 457 0 411.2 0C365.3 0 319.7 0 274 0C228.3 0 182.7 0 137 0C91.3 0 45.7 0 22.8 0L0 0Z" fill="#305991"></path><path d="M0 64L22.8 63.5C45.7 63 91.3 62 137 61.2C182.7 60.3 228.3 59.7 274 58.7C319.7 57.7 365.3 56.3 411.2 52.8C457 49.3 503 43.7 548.8 39.5C594.7 35.3 640.3 32.7 686 36.5C731.7 40.3 777.3 50.7 823 53.7C868.7 56.7 914.3 52.3 937.2 50.2L960 48L960 0L937.2 0C914.3 0 868.7 0 823 0C777.3 0 731.7 0 686 0C640.3 0 594.7 0 548.8 0C503 0 457 0 411.2 0C365.3 0 319.7 0 274 0C228.3 0 182.7 0 137 0C91.3 0 45.7 0 22.8 0L0 0Z" fill="#3069a5"></path></svg>